<svg xmlns="http://www.w3.org/2000/svg" viewBox="0 0 68 44" fill="none">
  <path d="M6 32h4a4 4 0 108 0h32a4 4 0 108 0h4a4 4 0 004-4V14l-4-4H10l-6 4v14a4 4 0 004 4z" fill="#6B7280" stroke="#4B5563" stroke-width="1.5"/>
  <circle cx="12" cy="32" r="3.5" fill="#374151" stroke="#1F2937" stroke-width="1"/>
  <circle cx="56" cy="32" r="3.5" fill="#374151" stroke="#1F2937" stroke-width="1"/>
  <path d="M10 10l-4 4v6h16V10H10z" fill="#93C5FD" stroke="#60A5FA" stroke-width="0.5"/>
  <path d="M24 10v10h20V10H24z" fill="#93C5FD" stroke="#60A5FA" stroke-width="0.5"/>
  <path d="M46 10v10h16v-6l-4-4h-12z" fill="#93C5FD" stroke="#60A5FA" stroke-width="0.5"/>
  <rect x="4" y="6" width="60" height="4" rx="2" fill="#9CA3AF"/>
</svg>
